<?xml version="1.0" encoding="iso-8859-1"?>
<!-- Generator: Adobe Illustrator 19.0.0, SVG Export Plug-In . SVG Version: 6.00 Build 0)  -->
<svg version="1.1" id="Layer_1" xmlns="http://www.w3.org/2000/svg" xmlns:xlink="http://www.w3.org/1999/xlink" x="0px" y="0px"
	 viewBox="0 0 512.001 512.001" style="enable-background:new 0 0 512.001 512.001;" xml:space="preserve">
<g>
	<g>
		<g>
			<path fill="currentColor" d="M397.15,297.527c-7.692-12.194-13.396-26.232-16.952-41.722c-11.099-48.357-34.153-112.301-67.565-148.945
				c32.585-18.074,47.995-55.31,39.73-90.036c-1.535-6.45-6.4-11.587-12.757-13.471c-40.87-12.105-85.122,9.421-99.751,50.812
				l-19.732-19.732c-7.232-7.233-18.959-7.233-26.193,0c-7.233,7.233-7.233,18.959,0,26.193l27.277,27.277
				c-46.72,29.294-77.032,113.416-89.457,167.156c-3.712,16.05-9.474,30.341-17.126,42.474
				c-57.812,91.659,35.193,214.469,141.265,214.469c89.678,0,159.236-82.555,159.236-153.574
				C415.124,337.226,408.908,316.168,397.15,297.527z M317.504,37.06c-0.753,23.272-19.376,42.241-42.936,42.867
				c-0.773-0.215-1.547-0.415-2.321-0.604C273.354,55.367,293.151,36.559,317.504,37.06z M255.887,474.958
				c-67.284,0-122.194-64.096-122.194-116.531c0-37.399,21.545-40.529,34.146-95.025c19.021-82.261,61.656-159.971,96.011-147.536
				c29.204,10.544,62.951,72.881,80.245,148.225c12.201,53.156,33.986,56.882,33.986,94.336
				C378.081,410.899,323.134,474.958,255.887,474.958z"/>
			<path fill="currentColor" d="M218.313,405.401c-11.07-8.512-20.325-20.167-25.393-31.974c-4.034-9.4-14.923-13.75-24.324-9.714
				c-9.4,4.035-13.749,14.924-9.714,24.324c7.597,17.7,20.686,34.295,36.852,46.726c8.11,6.238,19.739,4.715,25.972-3.392
				C227.94,423.266,226.422,411.637,218.313,405.401z"/>
		</g>
	</g>
</g>
<g>
</g>
<g>
</g>
<g>
</g>
<g>
</g>
<g>
</g>
<g>
</g>
<g>
</g>
<g>
</g>
<g>
</g>
<g>
</g>
<g>
</g>
<g>
</g>
<g>
</g>
<g>
</g>
<g>
</g>
</svg>
